<?xml version="1.0" encoding="UTF-8"?>
<svg width="640" height="480" xmlns="http://www.w3.org/2000/svg" xmlns:svg="http://www.w3.org/2000/svg">
 <!-- Created with SVG-edit - http://svg-edit.googlecode.com/ -->
 <g>
  <title>Layer 1</title>
  <rect id="svg_1" height="293.999992" width="63" y="110.000008" x="64" stroke-width="5" stroke="#000000" fill="#00ff00"/>
  <rect id="svg_2" height="60" width="197" y="109" x="63" stroke-linecap="null" stroke-linejoin="null" stroke-dasharray="null" stroke-width="5" stroke="#000000" fill="#00ff00"/>
  <rect id="svg_3" height="56" width="128" y="234" x="66" stroke-linecap="null" stroke-linejoin="null" stroke-dasharray="null" stroke-width="5" stroke="#000000" fill="#00ff00"/>
  <rect id="svg_4" height="201" width="55" y="268" x="230" stroke-linecap="null" stroke-linejoin="null" stroke-dasharray="null" stroke-width="5" stroke="#000000" fill="#00007f"/>
  <rect transform="rotate(-23.925, 328.5, 413)" id="svg_7" height="112" width="41" y="357" x="308" stroke-linecap="null" stroke-linejoin="null" stroke-dasharray="null" stroke-width="5" stroke="#000000" fill="#00007f"/>
  <path transform="rotate(-90.4806, 408.311, 254.84)" id="svg_8" d="m498.416626,356.191284c0,3.121307 -2.52771,5.648254 -5.644653,5.648254l-36.167603,0c-3.116852,0 -5.654541,-2.526947 -5.654541,-5.648254l0,-76.835388c0,-3.117554 2.537689,-5.649567 5.654541,-5.649567l36.167603,0c3.116943,0 5.644653,2.532013 5.644653,5.649567l0,76.835388zm-133.89447,0c0,3.121307 -2.533203,5.648254 -5.654175,5.648254l-36.163666,0c-3.118347,0 -5.65155,-2.526947 -5.65155,-5.648254l0,-76.835388c0,-3.117554 2.533203,-5.649567 5.65155,-5.649567l36.163666,0c3.120972,0 5.654175,2.532013 5.654175,5.649567l0,76.835388zm43.686615,-208.351471c-65.442749,0 -118.561066,52.646378 -119.38974,117.892181l20.722382,0c0.678223,-53.927811 44.586456,-97.434692 98.667358,-97.434692c54.090912,0 97.996063,43.506882 98.662689,97.434692l20.717896,0c-0.805237,-65.245804 -53.949707,-117.892181 -119.380585,-117.892181zm-119.21463,177.655579l20.34314,0l0,-59.880096l-20.34314,0l0,59.880096zm217.709473,-59.891022l0,59.887299l21.097168,0l0,-59.887299l-21.097168,0z" stroke-linecap="null" stroke-linejoin="null" stroke-dasharray="null" stroke-width="5" stroke="#000000" fill="#ff0000"/>
  <path transform="rotate(89.3405, 313.598, 313.236)" id="svg_6" d="m314.395935,232.736343c22.217499,0 40.239594,18.039383 40.239594,40.259598c0,22.215057 -18.022095,40.239899 -40.239594,40.239899c-22.217621,0 -40.239746,18.039307 -40.239746,40.256714c0,22.217682 18.022125,40.239899 40.239746,40.239899c44.432434,0 80.496887,-36.064148 80.496887,-80.496613c0,-44.43512 -36.064453,-80.499496 -80.496887,-80.499496zm0,27.675858c-6.94455,0 -12.581451,5.63446 -12.581451,12.58374c0,6.944489 5.636902,12.576141 12.581451,12.576141c6.944336,0 12.581207,-5.631653 12.581207,-12.576141c0,-6.94928 -5.636871,-12.58374 -12.581207,-12.58374zm0,80.499268c6.941925,0 12.581207,5.636658 12.581207,12.581085c0,6.942352 -5.639282,12.579102 -12.581207,12.579102c-6.941956,0 -12.581451,-5.636749 -12.581451,-12.579102c0,-6.944427 5.639496,-12.581085 12.581451,-12.581085zm78.690704,-27.626068c0,44.40036 -35.994995,80.39505 -80.392792,80.39505c-44.40033,0 -80.395004,-35.99469 -80.395004,-80.39505c0,-44.40033 35.994675,-80.392761 80.395004,-80.392761c44.397797,0 80.392792,35.992432 80.392792,80.392761z" stroke-linecap="null" stroke-linejoin="null" stroke-dasharray="null" stroke-width="5" stroke="#000000" fill="#00007f"/>
 </g>
</svg>